<?xml version="1.0" encoding="UTF-8" standalone="no"?>
<!-- Created with Inkscape (http://www.inkscape.org/) -->

<svg
   width="32"
   height="32"
   viewBox="0 0 8.4666665 8.4666669"
   version="1.1"
   id="svg5"
   inkscape:export-filename="C:\src\Accountant\beecountant.png"
   inkscape:export-xdpi="96"
   inkscape:export-ydpi="96"
   inkscape:version="1.1.2 (b8e25be833, 2022-02-05)"
   sodipodi:docname="Icon.svg"
   xmlns:inkscape="http://www.inkscape.org/namespaces/inkscape"
   xmlns:sodipodi="http://sodipodi.sourceforge.net/DTD/sodipodi-0.dtd"
   xmlns:xlink="http://www.w3.org/1999/xlink"
   xmlns="http://www.w3.org/2000/svg"
   xmlns:svg="http://www.w3.org/2000/svg">
  <sodipodi:namedview
     id="namedview7"
     pagecolor="#ffffff"
     bordercolor="#666666"
     borderopacity="1.0"
     inkscape:pageshadow="2"
     inkscape:pageopacity="0.0"
     inkscape:pagecheckerboard="0"
     inkscape:document-units="mm"
     showgrid="true"
     inkscape:zoom="16.589788"
     inkscape:cx="11.000743"
     inkscape:cy="9.1622627"
     inkscape:window-width="1920"
     inkscape:window-height="1009"
     inkscape:window-x="-8"
     inkscape:window-y="-8"
     inkscape:window-maximized="1"
     inkscape:current-layer="layer1"
     units="px"
     width="32px">
    <inkscape:grid
       type="xygrid"
       id="grid6750" />
  </sodipodi:namedview>
  <defs
     id="defs2">
    <linearGradient
       inkscape:collect="always"
       id="linearGradient1795">
      <stop
         style="stop-color:#ffffff;stop-opacity:1;"
         offset="0"
         id="stop1799" />
      <stop
         style="stop-color:#000000;stop-opacity:1"
         offset="1"
         id="stop1801" />
    </linearGradient>
    <linearGradient
       inkscape:collect="always"
       xlink:href="#linearGradient1795"
       id="linearGradient1797"
       x1="140.85773"
       y1="78.084175"
       x2="104.74884"
       y2="129.42058"
       gradientUnits="userSpaceOnUse"
       gradientTransform="matrix(0.05139214,0,0,0.04908084,-1.053919,-1.6574589)" />
  </defs>
  <g
     inkscape:label="Ebene 1"
     inkscape:groupmode="layer"
     id="layer1">
    <path
       style="fill:#c48500;fill-opacity:1;stroke-width:0.0141085"
       d="M 1.5775409,6.1037026 C 1.4034356,5.828191 0.95355204,5.0665763 0.95699185,5.0531662 0.95945665,5.0435495 1.1065773,4.7956215 1.2839228,4.5022156 L 1.6063692,3.96875 h 0.6520237 0.6520237 l 0.33009,0.5465331 C 3.5008297,4.9463025 3.5675292,5.0665836 3.5560831,5.0843737 3.5481009,5.0967806 3.4002332,5.3412932 3.2274884,5.6277355 L 2.9134071,6.1485402 H 2.2596411 1.6058751 Z M 5.4213677,5.6043593 5.0929333,5.0601789 5.4164348,4.5248117 5.7399363,3.9894445 l 0.6622876,-0.00297 0.6622869,-0.00297 0.3029876,0.5038046 c 0.1666433,0.2770925 0.3115652,0.5206577 0.3220494,0.5412562 0.018321,0.035997 0.00635,0.058481 -0.3080671,0.5787126 L 7.0543517,6.148535 H 6.4020766 5.7498021 Z M 1.5988428,3.8342375 C 1.355613,3.4398626 0.95407172,2.7602188 0.95719635,2.7481952 0.95955208,2.739137 1.1065773,2.4916658 1.2839228,2.1982603 L 1.6063692,1.6647948 h 0.6520237 0.6520237 l 0.3288303,0.5444463 c 0.1808563,0.2994457 0.3260934,0.5493285 0.322749,0.5552947 -0.00334,0.00597 -0.1509656,0.2514184 -0.3280477,0.5454487 L 2.9119811,3.8445847 H 2.2586029 c -0.3593584,0 -0.6562499,-0.00466 -0.6597601,-0.010347 z M 5.4260835,3.3104783 C 5.2485727,3.0165684 5.1033579,2.7666241 5.1033836,2.7550463 5.1034125,2.7434679 5.2488814,2.4934251 5.4266539,2.199395 L 5.7498768,1.6647948 h 0.6523945 0.6523945 l 0.3268841,0.5407676 c 0.1797863,0.2974225 0.323946,0.5504094 0.3203546,0.5621927 -0.00359,0.011784 -0.1495953,0.2573387 -0.3244537,0.5456782 l -0.3179246,0.5242535 -0.6553474,0.00359 -0.6553479,0.00359 z M 3.3591016,2.1415664 3.0303422,1.5974243 3.3541365,1.0620188 3.6779307,0.52661329 l 0.6564128,-0.003587 0.656413,-0.003587 0.3255284,0.53914661 0.3255284,0.5391466 -0.3274653,0.5436486 -0.327466,0.543648 -0.6495104,3.65e-4 -0.6495108,3.65e-4 z"
       id="path21" />
    <path
       style="mix-blend-mode:normal;fill:url(#linearGradient1797);fill-opacity:1;stroke-width:0.0125558;stroke-miterlimit:4;stroke-dasharray:none"
       d="M 2.2189542,7.9729339 2.1592727,7.9105507 V 5.0557222 c 0,-2.8407159 1.363e-4,-2.8550337 0.024791,-2.8967557 0.013635,-0.023061 0.039899,-0.052641 0.058365,-0.065734 0.032141,-0.02279 0.094484,-0.023953 1.4607412,-0.027276 l 1.427168,-0.00347 0.09032,0.085892 c 0.093708,0.089111 0.4397509,0.432235 0.7169633,0.7109125 0.3449562,0.346783 0.4870688,0.4956929 0.5189306,0.5437493 l 0.033238,0.050134 0.00494,2.2131852 0.00494,2.2131857 -0.027228,0.04605 c -0.014976,0.025329 -0.045196,0.060377 -0.067158,0.077886 l -0.039929,0.031834 H 4.3220047 2.2786357 Z M 6.1280896,5.6740008 V 3.6979933 L 5.5756389,3.6911272 C 4.9585706,3.683458 4.9713035,3.6853961 4.9182193,3.5909487 4.8943969,3.5485617 4.8929186,3.5202471 4.8870669,2.9941715 l -0.00615,-0.552279 H 3.7197673 c -0.6386353,0 -1.1708317,0.00416 -1.1826582,0.00923 -0.02033,0.00873 -0.021503,0.1044045 -0.021503,1.754255 0,0.9597644 0.00367,2.1274361 0.00816,2.5948267 l 0.00816,0.8498024 H 4.3300088 6.1280896 Z M 3.0267025,6.9885669 c -0.03902,-0.037799 -0.068751,-0.1062323 -0.068751,-0.1582433 0,-0.048585 0.044617,-0.1163308 0.09834,-0.1493195 0.042565,-0.026138 0.054259,-0.02638 1.2594133,-0.026187 0.9550521,1.565e-4 1.2260671,0.00372 1.261215,0.016599 0.1234957,0.045253 0.146866,0.2344266 0.039833,0.3224307 -0.0326,0.026804 -0.03344,0.026821 -1.2947674,0.026821 H 3.0598387 Z M 3.0839834,6.2994882 C 2.9472495,6.2669995 2.9172652,6.0655913 3.0356487,5.9748205 c 0.034555,-0.026494 0.039688,-0.0266 1.2901732,-0.0266 h 1.25548 l 0.038311,0.028564 c 0.05015,0.037393 0.070599,0.091704 0.06352,0.1687078 -0.00624,0.067853 -0.035616,0.1190766 -0.083401,0.1454176 -0.024752,0.013644 -0.2669922,0.017324 -1.2471662,0.01895 -0.7443313,0.00123 -1.2366828,-0.00279 -1.2685823,-0.010372 z m 2.74921,-3.0026843 c 0,-0.00711 -0.3116705,-0.3228615 -0.5068547,-0.5134924 L 5.2556873,2.714307 v 0.2980857 0.2980856 l 0.2887517,-0.00281 c 0.1588153,-0.00154 0.2887544,-0.00644 0.2887544,-0.010871 z"
       id="path133"
       sodipodi:nodetypes="ccscsscssscccssccccccssscscssccccssscssscsssscsssssssccccss" />
    <path
       style="fill:#000000;stroke-width:0.00145934"
       d="M 4.5809382,4.5313427 C 4.5388282,4.5288579 4.5041411,4.5234881 4.4568444,4.5121278 4.4040271,4.499442 4.3611163,4.4843216 4.3108169,4.4606715 4.2390969,4.4269489 4.1816345,4.3878963 4.1230707,4.3330742 4.0777464,4.2906465 4.0549598,4.2646418 4.0242202,4.2202617 3.9952125,4.178382 3.9708735,4.1353088 3.9554879,4.0986273 l -0.00582,-0.013903 -0.1227484,-2.83e-5 -0.1227483,-1.49e-5 v -0.083481 -0.083481 h 0.100213 0.1002147 l -0.0012,-0.014631 c -6.598e-4,-0.00804 -0.0016,-0.035176 -0.00208,-0.060293 L 3.9004122,3.7971446 3.8022875,3.7967643 3.7041635,3.796384 V 3.715083 3.633762 l 0.1142959,-3.805e-4 0.1142959,-3.803e-4 0.00667,-0.020693 C 3.9633283,3.5381912 4.0043883,3.4645127 4.0570252,3.4012724 4.0940612,3.3567754 4.1467262,3.3079934 4.1936675,3.2747 4.3060738,3.194977 4.4440963,3.1444855 4.5742199,3.1354869 c 0.038223,-0.00263 0.1296945,-1.223e-4 0.1678936,0.00463 0.029469,0.00366 0.085088,0.016312 0.1216285,0.027677 0.038527,0.011978 0.091036,0.033032 0.091036,0.036509 0,0.00224 -0.014336,0.031499 -0.039593,0.080824 C 4.891084,3.3321909 4.878069,3.3552089 4.8749,3.3563699 4.87385,3.3567502 4.860789,3.3524999 4.84589,3.3469099 4.800838,3.3299909 4.770665,3.3216169 4.7331595,3.3155889 c -0.053346,-0.00858 -0.1233447,-0.00938 -0.1790859,-0.00206 -0.1789727,0.023489 -0.3460762,0.1415637 -0.419707,0.2965679 -0.0052,0.010938 -0.00912,0.020736 -0.0087,0.021762 6.147e-4,0.00152 0.059089,0.00187 0.3231501,0.00187 h 0.3224055 v 0.081344 0.081341 H 4.4278095 4.0844021 l 8.834e-4,0.05387 c 5.077e-4,0.029629 0.00129,0.056921 0.0018,0.060648 l 9.24e-4,0.00678 h 0.3199656 0.3199664 v 0.083485 0.083481 l -0.2816877,1.268e-4 c -0.1549271,4.23e-5 -0.2849231,5.493e-4 -0.2888786,0.00107 l -0.00719,9.402e-4 0.00868,0.013175 c 0.02555,0.038778 0.049547,0.068516 0.077315,0.095813 0.063503,0.062426 0.1391836,0.1087903 0.2208911,0.1353248 0.022629,0.00735 0.064331,0.017817 0.083573,0.020979 0.024099,0.00397 0.061712,0.00551 0.1141676,0.00472 0.055544,-8.428e-4 0.060336,-0.00135 0.1094941,-0.011718 0.017127,-0.00361 0.031383,-0.00634 0.031678,-0.00605 0.0073,0.00699 0.056962,0.1603356 0.053111,0.163988 -0.00145,0.00139 -0.024494,0.00733 -0.04803,0.012412 -0.03039,0.00655 -0.059658,0.011493 -0.082081,0.013833 -0.024269,0.00255 -0.1083621,0.00378 -0.1380464,0.00203 z"
       id="path6095" />
  </g>
</svg>
